<?xml version="1.0" encoding="UTF-8"?>
<svg id="Layer_2" data-name="Layer 2" xmlns="http://www.w3.org/2000/svg" viewBox="0 0 478.67 350.76">
  <defs>
    <style>
      .cls-1 {
        fill: #fcedce;
      }

      .cls-1, .cls-2 {
        stroke-width: 0px;
      }

      .cls-2 {
        fill: #fff;
      }
    </style>
  </defs>
  <g id="svg12385">
    <polygon class="cls-1" points="120.45 200.08 155.99 144.76 155.99 200.08 120.45 200.08"/>
    <path class="cls-1" d="M248.78,134.43h-10.76v82.26h10.76c22.76,0,41.04-18.46,41.04-41.22s-18.28-41.04-41.04-41.04ZM248.78,134.43h-10.76v82.26h10.76c22.76,0,41.04-18.46,41.04-41.22s-18.28-41.04-41.04-41.04ZM248.78,134.43h-10.76v82.26h10.76c22.76,0,41.04-18.46,41.04-41.22s-18.28-41.04-41.04-41.04ZM248.78,134.43h-10.76v82.26h10.76c22.76,0,41.04-18.46,41.04-41.22s-18.28-41.04-41.04-41.04ZM392.64,0H85.97C38.48,0,0,78.5,0,175.35s38.48,175.41,85.97,175.41h306.67c47.5,0,86.03-78.56,86.03-175.41S440.14,0,392.64,0ZM189.63,252.72h-33.88v-20.43h-56.57l-13.09,20.43h-49.59l110.89-154.5h42.24v154.5ZM252.96,252.6v.12h-47.38V98.22h47.74c42.6,0,76.89,34.53,76.89,77.25s-34.65,77.13-77.25,77.13ZM330.93,252.12c17.02-20.37,26.7-46.18,26.7-73.13,0-30.35-12.25-59.5-33.69-80.89h18.99c19.12,22.4,29.88,51.14,29.88,80.89,0,26.47-8.37,52.16-23.78,73.13h-18.1ZM387.86,252.12h-18.1c17.15-20.37,26.89-46.18,26.89-73.13,0-30.35-12.37-59.5-33.88-80.89h19.06c19.12,22.4,29.93,51.14,29.93,80.89,0,26.47-8.48,52.16-23.9,73.13ZM426.82,252.12h-18.17c17.15-20.37,26.83-46.18,26.83-73.13,0-30.35-12.37-59.5-33.82-80.89h19c19.12,22.4,29.99,51.14,29.99,80.89,0,26.47-8.54,52.16-23.83,73.13ZM248.78,134.43h-10.76v82.26h10.76c22.76,0,41.04-18.46,41.04-41.22s-18.28-41.04-41.04-41.04ZM248.78,134.43h-10.76v82.26h10.76c22.76,0,41.04-18.46,41.04-41.22s-18.28-41.04-41.04-41.04ZM248.78,134.43h-10.76v82.26h10.76c22.76,0,41.04-18.46,41.04-41.22s-18.28-41.04-41.04-41.04Z"/>
    <polygon class="cls-2" points="155.99 144.76 155.99 200.08 120.45 200.08 155.99 144.76"/>
    <polygon class="cls-1" points="155.99 144.76 155.99 200.08 120.45 200.08 155.99 144.76"/>
  </g>
</svg>