<?xml version="1.0" encoding="UTF-8"?>
<svg id="Layer_2" data-name="Layer 2" xmlns="http://www.w3.org/2000/svg" viewBox="0 0 16.33 16.9">
  <defs>
    <style>
      .cls-1 {
        fill: #fcedce;
        stroke-width: 0px;
      }
    </style>
  </defs>
  <g id="svg6">
    <g>
      <path class="cls-1" d="M16.33,7.9c-.1.7-.2,1-.3,1,0,.1-.1.1-.2.1s-.1-.1-.1-.2c0,0,.1-.3.2-.9s-.2-1.1-.2-1.1c0-.1,0-.2.1-.2h.2v.1s.3.6.2,1.3l.1-.1Z"/>
      <path class="cls-1" d="M15.33,8.7c0,.1-.1.1-.2.1s-.1-.1-.1-.2c0,0,.1-.3.1-.9s-.3-1.1-.3-1.1c0-.1,0-.2.1-.2h.2s.3.6.3,1.3-.1,1-.2,1h.1Z"/>
      <path class="cls-1" d="M14.63,8.3c-.3,1.2-.8,2.2-.9,2.6-.2.4-.3.9-.2,2.2,0,1.3,0,2.2-.1,2.5,0,.2-.2.3-.4.3s-.3-.1-.4-.4c-.1-.5-.3-2.6-.3-2.9,0-.2-.2-.4-.3-.4s-.2.1-.3.5c-.2.9-.5,3.1-.6,3.6s-.3.6-.4.6h-.1c-.1,0-.4,0-.4-.4,0-.5.4-3.5.4-3.8,0-.2,0-.3-.1-.3s-.1.1-.2.2c-.3.4-1.7,2.9-2.1,3.7-.1.2-.2.2-.4.2-.1,0-.2,0-.3-.1s-.3-.4-.2-.6,1.5-3.4,1.7-3.8c.1-.3.1-.5-.1-.5-.1,0-.2.1-.4.2-.5.5-2.4,2.5-2.7,2.7-.1.1-.2.2-.3.2s-.2-.1-.3-.2c-.2-.2-.2-.4-.1-.6.2-.2,2.6-3.3,3-4.1.4-.7,1-1.9-.2-1.9h-.2c-.5,0-.8.1-1.1.1-.5,0-.7-.1-.8-.1-.2-.1-.6-.3-.5-.6.1-.2.7-.1,1-.2l.2-.1s1.1-.3,1.8-.7,2.3-1.1,2.7-1.1c.2,0,.4-.1.6-.1.3,0,.6,0,.7.1.3.1.6.9,2,1.5,0,0,.6.6.3,1.8v-.1Z"/>
      <path class="cls-1" d="M2.93,10.5c-.4-1.2-.6-2.3-.6-2.7-.1-.4-.3-.9-1-1.9C.63,4.9.13,4.1.03,3.8c-.1-.2.1-.5.4-.5.1,0,.2,0,.3.2.4.4,1.7,2,1.9,2.2.1.1.3.2.4.2.2,0,.2-.1.1-.6-.3-.9-1.3-2.9-1.5-3.3-.3-.7.1-.7.1-.7,0,0,.1-.1.2-.1s.2,0,.3.2c.2.4,1.6,3.2,1.8,3.4.1.1.2.2.3.2s.1-.1.1-.3c0-.5-.2-3.3-.3-4.2,0-.3.3-.5.5-.5h0c.2,0,.4.2.5.4.1.2.6,3.7.7,4.2,0,.2.2.4.3.4s.2-.1.3-.4c.1-.7.7-3.4.7-3.7s.2-.4.4-.4h.1c.2,0,.4.2.4.5s-.3,3.7-.2,4.8c-.5.2-1,.4-1.3.4h0l-.2.1h-.2c-.4,0-1,0-1.3.6-.1.3-.2.6-.1.8.2.5.8.8.9.9h0c.2.1.5.2,1.1.2.3,0,.6,0,1.1-.1l-.3.6-.1.1c-.2.3-.8,1.2-1.8,2.5h-.5c-.3,0-.6,0-.9.1,0,0-.8-.1-1.3-1.3v-.2Z"/>
      <path class="cls-1" d="M3.73,12.7c0,.1-.1.1-.2.1h-.1s-.6-.2-1-.8c-.4-.6-.5-.9-.5-.9,0-.1,0-.2.1-.2s.2,0,.2.1c0,0,.1.3.4.8.4.5.9.7.9.7.1,0,.1.1.1.2h.1Z"/>
      <path class="cls-1" d="M2.83,13.1c0,.1-.1.1-.1.1h-.1s-.6-.3-.9-.9c-.4-.6-.4-.9-.4-1s.1-.2.1-.2c.1,0,.2.1.2.1,0,0,0,.3.4.8.3.5.8.8.8.8.1,0,.1.1.1.2l-.1.1Z"/>
    </g>
  </g>
</svg>