<?xml version="1.0" encoding="UTF-8"?>
<svg id="Layer_2" data-name="Layer 2" xmlns="http://www.w3.org/2000/svg" viewBox="0 0 81.6 84.41">
  <defs>
    <style>
      .cls-1 {
        fill: #3a6835;
      }
    </style>
  </defs>
  <g id="Layer_1-2" data-name="Layer 1">
    <g>
      <path class="cls-1" d="M73.12,41.86c-1.42,4.56-3.31,8.89-4.86,13.4-1.25,3.66-.69,6.72-.57,10.43.09,2.81-.03,5.98-.17,8.78-.05,1.02-.08,3.42-.66,4.22-.62.84-2.34.97-3.06.17-1.03-1.14-1.31-5.55-1.49-7.2-.18-1.68-.34-3.37-.5-5.05-.12-1.26-.07-2.83-.27-4.04-.1-.57-.86-1.7-1.51-1.63-.8.08-1.24,1.94-1.4,2.58-1.44,5.8-1.66,12.09-2.98,17.89-.22.95-.74,2.83-1.92,2.97-1.08.13-2.26-.05-2.57-1.24-.26-1.01.1-3.45.21-4.6.49-5.06,1.28-10.09,1.74-15.16,0-.25-.06-1.27-.22-1.37-.52-.34-1.06.66-1.34,1.06-.75,1.05-1.43,2.26-2.1,3.37-3.04,5.06-5.78,10.31-8.61,15.49-.49.61-2.15.61-2.78.32-.82-.37-1.79-2.18-1.58-3.1,2.32-5.2,4.62-10.4,6.92-15.6.57-1.29,2.09-3.99,2.01-5.29-.11-1.71-2.12-.16-2.82.25-3.69,3.65-7.15,7.55-10.89,11.14-.92.89-2.12,2.09-3.12,2.85-.87.66-1.28.51-2.06-.16-2.6-2.19-.64-3.67.83-5.55,3.06-3.93,6.13-7.88,9.02-11.94,2.05-2.88,4.29-6.03,5.72-9.27,1.08-2.46,2.21-6.22-1.69-6.57-3.86-.34-7.36,1.17-11.24-.02-1-.31-3.25-1.86-2.5-3.12.51-.85,3.72-.59,4.76-.87.44-.12.83-.43,1.24-.58,1.32-.47,2.74-.82,4.08-1.31,5.55-2.03,10.46-5.46,16.23-7.21,1.97-.6,5.54-1.2,7.55-.88,1.9.31,3.44,2.73,4.85,4.01,1.03.93,2.31,1.84,3.51,2.54,1.31.76,2.67.99,3.47,2.33,1.35,2.27,1.56,5.47.78,7.97Z"/>
      <path class="cls-1" d="M39.11,43.38c.02.12-.03.2-.06.31-.21.56-1.06,2.28-1.39,2.75-.13.19-.35.32-.48.51-2.92,4.21-5.81,8.44-8.99,12.46-1.97.12-3.95-.1-5.9.23-1.05.18-.99.46-2.14.02-2.03-.79-5.09-4.09-5.53-6.23-.07-.35.02-.75-.04-1.12-.17-1.08-.88-2.78-1.2-3.94-.36-1.33-.71-2.71-.99-4.06-.59-2.84-.57-5.52-1.75-8.19-2.02-4.55-5.71-8.83-8.33-13.12-.58-.96-2.09-3.28-2.27-4.28-.26-1.52,1.28-2.48,2.67-2.25.6.1.73.68,1.04,1.03,3.17,3.65,6.38,7.27,9.48,10.97.5.5,2.55,1.6,2.7.37.19-1.6-.92-4.09-1.54-5.59-.83-2.01-1.78-4.03-2.7-5.99-1.13-2.42-2.8-5.2-3.72-7.63-.34-.9-.74-2.17.04-2.94.78-.26,1.25-.91,2.14-.72.56.12.83.61,1.1,1.06,2.02,3.42,3.73,7.53,5.63,11.1.82,1.55,2.62,5.35,3.85,6.33.79.63,1.3.78,1.41-.42.07-.78-.04-2-.08-2.82-.17-3.69-.47-7.41-.75-11.09-.18-2.34-.55-4.81-.66-7.12-.04-.83-.03-1.32.5-1.98,1.41-1.77,3.55-1.08,4.46.76.65,1.32,1.05,5.15,1.33,6.79.81,4.87,1.48,9.76,2.27,14.62.14.74,1.03,2.13,1.88,1.59,1.05-.66,1.3-3.59,1.53-4.76.98-4.92,2.15-9.93,2.93-14.87.17-1.06-.05-2.11,1.26-2.55,2.18-.74,3.44.74,3.4,2.82-.05,2.53-.43,5.23-.58,7.78-.32,5.24-.65,10.48-.42,15.72l-.13.12c-1.58.56-3.19,1.34-4.83,1.71-.51.12-1.06.12-1.52.22-.29.06-.66.4-.95.46-.81.17-2.18,0-3.12.11-2.73.34-4.27,1.7-4.92,4.36-.27,1.13-.4,1.75.1,2.84.95,2.05,4.21,4.42,6.41,4.86,2.81.56,6.08.3,8.88-.22Z"/>
      <path class="cls-1" d="M7.07,55.41c.24-.14.92.22,1.06.43.16.24.14.64.24.92.86,2.38,3.42,5.59,5.56,6.95.37.23.67.09.74.67.09.73-.39.92-.75,1.49-.77.35-1.86-.58-2.44-1.04-1.72-1.38-3.28-3.67-4.17-5.68-.48-1.09-1.13-2.72-.24-3.74Z"/>
      <path class="cls-1" d="M80.11,32.95c.03.76.45,1.45.66,2.2.41,1.5.57,3.04.42,4.59l.41-.33c-.06.93-.24,1.91-.45,2.82-.25,1.05-.28,1.47-1.01,2.26-.06.06-.04.21-.14.31-.21.19-1.12.26-1.3.02-.41-.56.23-2.22.38-2.92.56-2.64.89-4.42-.09-7.04-.17-.47-.5-.73-.46-1.28.07-.96.88-.54,1.58-.62Z"/>
      <path class="cls-1" d="M18.24,63.33c.07.06.4-.07.49.13-.36.76-1.57.48-2.21.22-1.23-.5-2.8-1.78-3.67-2.79-.73-.84-3.18-4.66-3.23-5.63-.06-1.06.75-1.08,1.5-.67.74,1.97,1.67,4.1,3.23,5.55.82.76,1.94,1.52,2.93,2.04.31.16.7.11.85.48.05.13.09.62.13.66Z"/>
      <path class="cls-1" d="M76.38,43.38h.25c0,.77-1.45.88-1.57.03-.09-.67.33-2.02.41-2.81.27-2.76-.09-5.25-1.4-7.71-.24-.92.7-1.23,1.43-1.01.26.08.72,1.42.83,1.74.83,2.54,1.13,5.98.52,8.6-.1.42-.25.79-.46,1.16Z"/>
    </g>
  </g>
</svg>