<svg width="109" height="75" viewBox="0 0 109 75" fill="none" xmlns="http://www.w3.org/2000/svg">
<g clip-path="url(#clip0_114_3)">
<path d="M109 29.9208C108.985 29.9311 108.962 29.9374 108.96 29.9498C108.927 30.0992 108.841 30.2216 108.762 30.3461C107.971 31.62 107.103 32.84 106.179 34.0227C99.9627 41.9754 92.3256 48.2122 83.2696 52.727C79.4156 54.6483 75.3967 56.1484 71.2317 57.2584C69.5749 57.7003 67.9056 58.08 66.2217 58.3933C65.1763 58.5863 64.1267 58.7626 63.0709 58.8892C62.2947 58.9825 61.5163 59.0676 60.7401 59.1547C60.6879 59.161 60.6358 59.1547 60.569 59.1547C60.5606 59.1049 60.5481 59.0572 60.546 59.0074C60.5419 58.9286 60.546 58.8498 60.546 58.7709C60.546 39.3985 60.546 20.026 60.546 0.655662V0.275973C60.6003 0.269749 60.642 0.2573 60.6817 0.26145C61.1804 0.311245 61.6791 0.358965 62.1757 0.41706C62.7349 0.483454 63.2921 0.553997 63.8492 0.639064C64.6484 0.761477 65.4476 0.883891 66.2426 1.02913C67.7909 1.3113 69.3246 1.65779 70.8478 2.05201C76.4275 3.49399 81.715 5.65179 86.7105 8.51294C94.1619 12.7808 100.553 18.2687 105.88 24.9827C106.872 26.2338 107.815 27.5181 108.662 28.8709C108.722 28.9684 108.773 29.0701 108.843 29.1593C108.914 29.2485 108.914 29.373 109.004 29.4498V29.9228L109 29.9208ZM88.2671 28.8128C88.3109 28.8294 88.3589 28.8522 88.409 28.8626C88.6573 28.9228 88.9056 28.9788 89.1539 29.0348C90.2849 29.2983 91.4284 29.4934 92.5823 29.6241C93.3523 29.7133 94.1222 29.7797 94.8964 29.8087C96.0837 29.8502 97.271 29.8523 98.4583 29.7818C99.2491 29.734 100.036 29.6656 100.822 29.5701C101.897 29.4415 102.961 29.261 104.017 29.0182C104.065 29.0079 104.115 29.0016 104.182 28.9913C104.297 29.4166 104.409 29.8274 104.526 30.2507C104.445 30.2797 104.382 30.3088 104.315 30.3254C103.477 30.5245 102.629 30.6822 101.776 30.7963C101.123 30.8835 100.468 30.9602 99.8104 31.0204C99.1531 31.0806 98.4958 31.1325 97.8365 31.1553C95.9084 31.2175 93.9845 31.1636 92.069 30.9146C91.1613 30.7963 90.2598 30.6573 89.3668 30.4561C88.3047 30.2175 87.2446 29.9581 86.1596 29.8316C85.5837 29.7652 85.0057 29.7008 84.4277 29.651C84.0083 29.6137 83.5847 29.6033 83.1632 29.5784C82.0635 29.5162 80.9639 29.5349 79.8663 29.5577C79.7348 29.5598 79.6054 29.5743 79.4761 29.5826C79.4427 29.651 79.4176 29.705 79.3905 29.7589C79.3634 29.8129 79.3321 29.8668 79.305 29.9208C78.5621 31.4063 78.2596 32.9749 78.4474 34.6264C78.558 35.6099 78.8563 36.5373 79.3091 37.4191C79.8663 38.5063 80.6154 39.4483 81.4897 40.2989C82.4954 41.2762 83.6201 42.0978 84.8221 42.8177C85.327 43.1186 85.8487 43.3925 86.3599 43.6809C86.4329 43.7224 86.5248 43.7431 86.5665 43.822C86.4538 44.1166 86.0866 44.8137 85.9614 44.9735C85.9092 44.9527 85.8529 44.932 85.8007 44.905C85.6066 44.8033 85.4105 44.7017 85.2185 44.5979C83.9102 43.8883 82.6645 43.0854 81.5189 42.1351C80.6446 41.409 79.8475 40.6102 79.161 39.7035C77.8861 38.0167 77.1265 36.141 77.0493 34.0144C77.0284 33.4355 77.066 32.8608 77.1516 32.2881C77.2747 31.454 77.5063 30.649 77.836 29.871C77.8589 29.817 77.8756 29.761 77.9027 29.6842C77.8318 29.6801 77.7817 29.6697 77.7337 29.6739C77.2788 29.7112 76.8219 29.7444 76.367 29.7942C75.5803 29.8813 74.7936 29.9664 74.0112 30.0785C72.8802 30.2382 71.7555 30.4436 70.6412 30.6947C69.5082 30.9499 68.3897 31.2466 67.2942 31.6366C66.639 31.869 65.9984 32.1325 65.3891 32.4686C65.0428 32.6616 64.711 32.8732 64.4251 33.1512C64.4022 33.1741 64.3688 33.1886 64.3458 33.2031C64.1893 33.1222 64.1079 32.9604 63.9306 32.9043C63.9201 32.9562 63.9097 32.9894 63.9097 33.0205C63.9097 40.5417 63.9097 48.0628 63.9139 55.5861C63.9139 55.6089 63.9327 55.6338 63.941 55.6546C63.9619 55.6608 63.9786 55.6712 63.9932 55.6691C64.4022 55.6193 64.8153 55.5819 65.2222 55.5114C66.1403 55.3537 67.0564 55.1898 67.9724 55.0134C70.4618 54.5342 72.9073 53.891 75.3111 53.0942C83.6348 50.341 91.0632 46.0441 97.6278 40.2637C99.8042 38.3486 101.857 36.3112 103.758 34.1222C104.914 32.7902 106.006 31.4084 107.014 29.9623C107.072 29.8772 107.145 29.7984 107.172 29.7071C107.166 29.6759 107.166 29.6573 107.155 29.6427C107.114 29.5763 107.07 29.51 107.024 29.4456C106.171 28.2236 105.259 27.0451 104.299 25.906C102.6 23.8914 100.762 22.0137 98.8297 20.2231C94.0012 15.7478 88.6156 12.0816 82.6582 9.24742C78.8876 7.45272 74.9752 6.05015 70.9187 5.0418C69.6563 4.7285 68.3856 4.45255 67.1044 4.2264C66.2217 4.07079 65.3412 3.90066 64.4522 3.79069C64.3646 3.78032 64.277 3.76787 64.1893 3.76372C64.1059 3.75749 64.0224 3.71185 63.9264 3.75334C63.8888 3.87576 63.9055 3.99817 63.9055 4.11851C63.9055 13.2144 63.9055 22.3104 63.9055 31.4063C63.9055 31.4852 63.9055 31.564 63.9055 31.6429C63.9055 31.6843 63.8972 31.7321 63.9681 31.759C63.9974 31.7424 64.0349 31.7258 64.0683 31.7009C64.5461 31.369 65.0595 31.1013 65.5895 30.8648C66.4971 30.4581 67.4403 30.149 68.3939 29.873C68.4857 29.8461 68.5754 29.817 68.6568 29.7921C68.6693 29.7589 68.6819 29.7423 68.6798 29.7278C68.6756 29.6759 68.6693 29.6241 68.6568 29.5722C68.3376 28.1779 68.1706 26.765 68.1122 25.3375C68.0475 23.7337 68.131 22.1382 68.4106 20.5551C68.6527 19.1795 69.0303 17.8454 69.5896 16.5653C70.7059 14.007 72.4107 11.926 74.7164 10.3325C74.7936 10.2786 74.8646 10.2101 74.9585 10.1915C75.1839 10.4591 75.6158 11.121 75.6742 11.289C75.6638 11.3015 75.6533 11.3181 75.6408 11.3285C75.5699 11.3803 75.4989 11.4301 75.4259 11.4799C73.6523 12.7206 72.2584 14.2933 71.2589 16.2084C70.4868 17.6877 69.9985 19.2604 69.7231 20.9016C69.6104 21.5655 69.5374 22.2336 69.4936 22.9059C69.4331 23.8063 69.4351 24.7068 69.479 25.6072C69.5124 26.2712 69.577 26.933 69.6709 27.5908C69.7523 28.1613 69.8462 28.7319 69.9839 29.2921C69.9965 29.3398 70.0194 29.3855 70.0403 29.4353C70.0862 29.4311 70.1216 29.4311 70.155 29.4249C71.1483 29.1987 72.1499 28.9996 73.1577 28.8522C73.9924 28.7298 74.827 28.6116 75.6659 28.514C76.3378 28.4352 77.0138 28.3916 77.6878 28.3315C78.5371 28.2547 79.3905 28.2236 80.244 28.2028C81.7839 28.1655 83.3218 28.1925 84.8575 28.3398C85.4522 28.3958 86.0448 28.4726 86.6395 28.5389C86.7084 28.5472 86.7772 28.5472 86.8795 28.5535C86.8983 27.8688 86.965 27.2028 87.0965 26.543C87.23 25.8728 87.4178 25.2193 87.6641 24.5802C87.9061 23.9495 88.2045 23.3457 88.553 22.7668C88.9035 22.188 89.3 21.6444 89.7444 21.134C90.1931 20.6153 90.6834 20.1401 91.2093 19.6982C91.8311 19.1774 92.5865 18.6504 92.864 18.5446C93.058 18.7853 93.4879 19.4907 93.5421 19.665C93.4733 19.7127 93.4002 19.7605 93.3293 19.8102C93.0205 20.0281 92.7054 20.2356 92.407 20.468C90.408 22.0282 89.0663 24.0159 88.4862 26.489C88.3297 27.1551 88.24 27.8294 88.2379 28.5161C88.2379 28.6116 88.2191 28.7091 88.2692 28.8066L88.2671 28.8128Z" fill="#005D35"/>
<path d="M0 29.6574C0.058426 29.6283 0.0918123 29.5786 0.108505 29.5163C0.156498 29.3358 0.265004 29.1864 0.375596 29.0391C1.33963 27.7672 2.37251 26.5514 3.44505 25.3688C8.59489 19.6817 14.3958 14.7541 20.8581 10.5962C23.577 8.84712 26.3898 7.25782 29.3194 5.88015C32.8813 4.20371 36.5622 2.85716 40.3766 1.87163C41.8664 1.48779 43.3688 1.16204 44.8837 0.894395C45.8707 0.720112 46.8598 0.566576 47.8551 0.446238C48.6063 0.354946 49.3575 0.284403 50.1107 0.21386C51.4691 0.0872967 52.8296 0.020903 54.1943 0.00222973C54.2986 0.00222973 54.403 -0.0122939 54.5177 0.0229778C54.5261 0.0789975 54.5344 0.128793 54.5365 0.180663C54.5616 0.830076 54.5449 2.95468 54.5115 3.1829C54.4593 3.19328 54.4009 3.2078 54.3425 3.21195C53.825 3.24307 53.3054 3.2659 52.7879 3.30324C52.2349 3.34266 51.6841 3.39246 51.1332 3.4464C50.6428 3.49412 50.1546 3.55014 49.6663 3.61446C49.0132 3.7016 48.3601 3.79082 47.709 3.89664C46.5551 4.08544 45.4095 4.31367 44.2702 4.5751C41.8873 5.12492 39.5461 5.81375 37.2424 6.6333C33.1755 8.07944 29.2798 9.89282 25.5113 11.9863C21.9056 13.9906 18.4543 16.2313 15.1198 18.6485C11.2407 21.4598 7.54739 24.4911 4.06478 27.7776C3.47217 28.3378 2.89 28.9105 2.30365 29.4769C2.2348 29.5433 2.16802 29.6138 2.10751 29.6761C2.10751 29.7923 2.19306 29.8379 2.25358 29.896C2.8441 30.4707 3.43044 31.0517 4.02931 31.616C7.83743 35.2137 11.9064 38.4919 16.1798 41.5232C19.4183 43.82 22.7715 45.9405 26.2646 47.8389C29.7034 49.7062 33.2507 51.3391 36.9357 52.669C39.5586 53.6152 42.2295 54.3974 44.9546 54.9907C46.1482 55.2501 47.3501 55.47 48.5583 55.6505C49.4722 55.7875 50.3862 55.9037 51.3064 55.9929C52.1557 56.0759 53.0049 56.1443 53.8584 56.1755C54.0691 56.1838 54.2799 56.2024 54.4843 56.2149C54.5678 56.302 54.5386 56.4037 54.5386 56.495C54.5407 57.1942 54.5386 57.8934 54.5386 58.5947C54.5386 58.7876 54.5386 58.9785 54.5386 59.1715C54.5386 59.2399 54.5282 59.3084 54.5219 59.3893C54.4635 59.3976 54.4134 59.4122 54.3633 59.4122C53.8187 59.3997 53.272 59.3914 52.7274 59.3707C52.2975 59.3561 51.8656 59.3333 51.4358 59.3043C50.8035 59.2607 50.1733 59.215 49.5432 59.1549C48.8442 59.0885 48.143 59.0138 47.4461 58.9225C46.7325 58.8291 46.0188 58.7212 45.3073 58.603C44.12 58.4038 42.941 58.1652 41.7683 57.8913C39.1454 57.2834 36.5768 56.4991 34.0582 55.5509C30.0977 54.0633 26.3314 52.1835 22.7194 49.9946C17.1877 46.6459 12.1213 42.7058 7.47227 38.2284C6.8588 37.6371 6.2495 37.0437 5.65898 36.4316C3.93124 34.6369 2.24106 32.8069 0.711545 30.84C0.588434 30.6803 0.465322 30.5205 0.344296 30.3608C0.242051 30.228 0.143978 30.0952 0.0980722 29.9313C0.0855524 29.8877 0.0333863 29.8545 0 29.8151C0 29.7632 0 29.7093 0 29.6574Z" fill="#005D35"/>
<path d="M45.5013 75C45.445 74.9813 45.3886 74.9544 45.3302 74.9481C44.4601 74.8361 43.807 74.3962 43.3604 73.6493C43.1017 73.2157 42.9535 72.7406 42.8701 72.2447C42.8033 71.838 42.7741 71.4293 42.7741 71.0164C42.7741 70.562 42.7699 70.1076 42.7741 69.6532C42.7803 69.1013 42.8262 68.5536 42.9702 68.0183C43.062 67.678 43.1893 67.3544 43.3729 67.0535C43.8362 66.2941 44.5102 65.8564 45.4032 65.7609C45.6056 65.7402 45.806 65.7215 46.0084 65.7422C46.7178 65.8128 47.2624 66.1655 47.6902 66.7153C47.7486 66.79 47.805 66.8647 47.8822 66.9643C47.903 66.9062 47.9218 66.8792 47.9239 66.8502C47.9281 66.7713 47.926 66.6925 47.926 66.6137C47.926 65.2754 47.926 63.9372 47.926 62.5989C47.926 62.4952 47.9302 62.3914 47.9343 62.2794C48.2035 62.2337 48.456 62.2607 48.7085 62.2566C48.9714 62.2524 49.2364 62.2545 49.4993 62.2566C49.7518 62.2566 50.0064 62.2483 50.2714 62.2649C50.2797 62.3313 50.2881 62.3811 50.2902 62.4308C50.2922 62.4827 50.2902 62.5367 50.2902 62.5885C50.2902 66.5576 50.2902 70.5288 50.2902 74.4979C50.2902 74.6016 50.2839 74.7033 50.2818 74.8237C50.0752 74.8548 49.8833 74.8361 49.6934 74.8402C49.4993 74.8444 49.3073 74.8402 49.1133 74.8402C48.9192 74.8402 48.7273 74.8402 48.5332 74.8402C48.3412 74.8382 48.1493 74.8506 47.9489 74.8299C47.9135 74.7075 47.9281 74.5933 47.926 74.4813C47.9239 74.3755 47.926 74.2718 47.926 74.1659C47.9239 74.056 47.9427 73.9439 47.9051 73.8215C47.8676 73.8423 47.8404 73.8506 47.8279 73.8672C47.7862 73.9232 47.7507 73.9854 47.7111 74.0414C47.3584 74.5373 46.8785 74.834 46.2796 74.9419C46.2129 74.9544 46.1482 74.9813 46.0835 75H45.5034H45.5013ZM47.926 70.3836C47.926 70.0682 47.9302 69.7549 47.926 69.4395C47.9218 69.2735 47.9093 69.1076 47.8801 68.9457C47.8154 68.5972 47.6526 68.3067 47.3438 68.1117C47.1769 68.0058 46.9933 67.9478 46.8013 67.9249C45.9812 67.8253 45.4116 68.2278 45.23 68.952C45.1821 69.1449 45.1487 69.3482 45.1445 69.5454C45.1341 70.0952 45.1341 70.645 45.1445 71.1969C45.1487 71.4583 45.1883 71.7197 45.2885 71.9646C45.4679 72.4003 45.783 72.6742 46.2546 72.7675C46.53 72.8215 46.7971 72.8069 47.0621 72.7281C47.4419 72.6181 47.7006 72.3712 47.83 71.9978C47.903 71.7903 47.9281 71.5724 47.9302 71.3525C47.9302 71.0288 47.9302 70.7052 47.9302 70.3836H47.926Z" fill="#005D35"/>
<path d="M96.2276 75C96.1525 74.9398 96.0607 74.9522 95.9751 74.946C95.5975 74.9108 95.2281 74.8361 94.8713 74.7074C93.6986 74.2862 92.9641 73.4667 92.6511 72.2695C92.5509 71.8878 92.505 71.4956 92.4988 71.1014C92.4925 70.6553 92.4884 70.2092 92.4988 69.7632C92.5134 69.176 92.5906 68.5951 92.8013 68.0411C93.2646 66.819 94.1472 66.0845 95.4305 65.8293C96.0565 65.7048 96.6867 65.6862 97.3168 65.8148C98.0806 65.9704 98.7024 66.3501 99.1823 66.9601C99.5683 67.4498 99.8104 68.0079 99.9711 68.6054C100.138 69.2258 100.198 69.8607 100.221 70.4976C100.228 70.6989 100.224 70.9002 100.221 71.1014C100.221 71.1616 100.211 71.2197 100.205 71.2902C100.096 71.3296 99.9898 71.3151 99.8876 71.3151C98.2704 71.3151 96.6512 71.3151 95.0341 71.3151C94.9297 71.3151 94.8233 71.3027 94.7106 71.3379C94.7106 71.3919 94.7023 71.4438 94.7106 71.4915C94.8817 72.3484 95.4889 72.8194 96.3215 72.9044C97.0498 72.9791 97.7154 72.8007 98.3143 72.3795C98.356 72.3504 98.3998 72.3214 98.4415 72.2944C98.6231 72.4023 99.7958 73.4335 99.9731 73.6389C99.9335 73.6804 99.898 73.726 99.8521 73.7634C99.0613 74.4128 98.164 74.8278 97.1395 74.9481C97.0811 74.9543 97.0247 74.9813 96.9663 74.9979H96.2276V75ZM98.068 69.703C98.0513 69.5681 98.043 69.454 98.0221 69.3441C97.9616 69.0225 97.8615 68.7175 97.6695 68.4477C97.4567 68.1469 97.1666 67.9685 96.8035 67.9021C96.5844 67.8626 96.3674 67.8709 96.1483 67.8979C95.057 68.0349 94.6731 68.9395 94.6814 69.6553C94.6814 69.6719 94.696 69.6864 94.7065 69.7092C94.7357 69.7154 94.7691 69.732 94.8024 69.732C95.8478 69.732 96.8953 69.732 97.9408 69.732C97.9741 69.732 98.0075 69.7175 98.068 69.703Z" fill="#005D35"/>
<path d="M57.5894 75C57.4955 74.9813 57.4037 74.9544 57.3077 74.9461C56.8862 74.9046 56.473 74.8174 56.0787 74.6618C54.9289 74.2033 54.2382 73.3547 53.9586 72.1658C53.8919 71.8857 53.846 71.5994 53.8439 71.3089C53.8418 70.7052 53.8334 70.1014 53.848 69.4997C53.8606 68.9893 53.9607 68.4913 54.1443 68.0141C54.6118 66.8045 55.4944 66.0804 56.7672 65.8314C57.3932 65.709 58.0234 65.6904 58.6536 65.819C59.4277 65.9767 60.0516 66.3688 60.5316 66.9913C60.9238 67.4996 61.1659 68.0764 61.3224 68.6926C61.4518 69.2113 61.5248 69.7404 61.5373 70.2736C61.5436 70.5454 61.5436 70.8151 61.5436 71.0869C61.5436 71.1533 61.5331 71.2218 61.5248 71.2965C61.41 71.3255 61.3036 71.3151 61.2014 71.3151C59.5821 71.3151 57.965 71.3151 56.3457 71.3151C56.2414 71.3151 56.135 71.2985 56.0307 71.34C56.014 71.4521 56.0411 71.5537 56.0682 71.6533C56.256 72.3007 56.6838 72.7032 57.3411 72.8505C58.1361 73.0269 58.8769 72.8754 59.5571 72.4314C59.6301 72.3837 59.7011 72.3339 59.7845 72.2779C60.2895 72.7156 60.7882 73.1576 61.2953 73.612C61.2598 73.6597 61.2368 73.7074 61.1993 73.7364C60.4147 74.3942 59.5195 74.8112 58.495 74.944C58.4178 74.9543 58.3427 74.9792 58.2675 74.9979H57.581L57.5894 75ZM59.3651 69.7113C59.3735 69.6802 59.3881 69.6553 59.386 69.6304C59.3505 69.2154 59.2504 68.8212 59.0125 68.4706C58.8017 68.1573 58.5054 67.9726 58.1319 67.9021C57.8481 67.8481 57.5706 67.871 57.2952 67.9291C56.8924 68.0162 56.5648 68.2237 56.3291 68.564C56.1079 68.8835 56.0181 69.2445 56.0035 69.6283C56.0035 69.6532 56.0161 69.6781 56.0244 69.7072C56.0578 69.7155 56.0912 69.73 56.1246 69.73C57.1616 69.73 58.2008 69.7321 59.2378 69.73C59.2796 69.73 59.3234 69.7155 59.3672 69.7092L59.3651 69.7113Z" fill="#005D35"/>
<path d="M26.4461 75C26.3522 74.9813 26.2603 74.9543 26.1664 74.944C25.699 74.8963 25.2462 74.7946 24.8164 74.6058C23.8106 74.1638 23.1721 73.4024 22.8779 72.3567C22.7756 71.9936 22.7151 71.6222 22.711 71.2446C22.7047 70.6927 22.6984 70.1429 22.713 69.591C22.7277 69.0557 22.8195 68.5308 23.0135 68.0266C23.4768 66.8149 24.3573 66.0866 25.6281 65.8314C26.1748 65.7215 26.7277 65.6945 27.2807 65.7733C28.0882 65.8875 28.7685 66.234 29.2985 66.8564C29.6908 67.3191 29.9495 67.8502 30.1227 68.4249C30.2834 68.954 30.3731 69.4976 30.3982 70.0495C30.4128 70.3732 30.4148 70.6968 30.419 71.0205C30.419 71.1056 30.4128 71.1927 30.4107 71.2695C30.3043 71.34 30.2062 71.3151 30.1123 71.3151C28.9166 71.3151 27.7189 71.3151 26.5233 71.3151C26.0746 71.3151 25.626 71.3151 25.1774 71.3151C25.0918 71.3151 25.0042 71.3214 24.9019 71.3255C24.9019 71.3878 24.8957 71.4376 24.9019 71.4853C25.0063 72.1658 25.4966 72.6949 26.1936 72.8484C26.9781 73.0227 27.7126 72.8858 28.3908 72.4542C28.4722 72.4023 28.5515 72.3463 28.6391 72.2861C28.8353 72.4023 28.9855 72.5745 29.1587 72.7198C29.3256 72.8609 29.4884 73.0082 29.6532 73.1555C29.8222 73.307 29.9933 73.4584 30.1749 73.6202C30.1332 73.668 30.1039 73.7115 30.0664 73.7427C29.2797 74.3962 28.3866 74.8174 27.3621 74.9481C27.3037 74.9564 27.2473 74.9813 27.191 75H26.4523H26.4461ZM28.251 69.7009C28.2093 69.1615 28.0862 68.6718 27.7126 68.2735C27.5269 68.0764 27.2932 67.9602 27.0261 67.9062C26.7987 67.8606 26.5733 67.8668 26.3438 67.8938C25.5947 67.983 25.0501 68.483 24.9061 69.2528C24.879 69.3959 24.8289 69.5412 24.879 69.703C24.927 69.7134 24.975 69.7279 25.0271 69.7321C25.5613 69.7611 28.0173 69.7404 28.251 69.7009Z" fill="#005D35"/>
<path d="M68.5672 75C68.4733 74.9813 68.3794 74.9543 68.2855 74.946C67.8723 74.9045 67.4696 74.8174 67.0857 74.6597C66.1571 74.28 65.5207 73.614 65.1639 72.6845C64.999 72.2571 64.9051 71.8131 64.8822 71.3566C64.8446 70.6761 64.8446 69.9935 64.8822 69.3129C64.9093 68.8295 65.0136 68.3606 65.1993 67.9124C65.6125 66.9228 66.3428 66.2713 67.3653 65.9476C68.0434 65.7339 68.7425 65.6862 69.4519 65.7484C69.9986 65.7961 70.5265 65.9165 71.0315 66.1343C71.4634 66.3211 71.8495 66.5742 72.1729 66.9186C72.2209 66.9705 72.2668 67.0223 72.3106 67.0763C72.3273 67.097 72.3377 67.1219 72.3482 67.1427C72.2105 67.3273 71.0127 68.4789 70.827 68.6054C70.7895 68.5784 70.7456 68.5515 70.706 68.5204C70.2115 68.1427 69.6502 67.9768 69.0304 67.9996C68.8739 68.0058 68.7133 68.0203 68.5609 68.0535C67.7743 68.2257 67.2985 68.7797 67.2401 69.5785C67.2317 69.6926 67.2296 69.8047 67.2296 69.9188C67.2296 70.2694 67.2296 70.618 67.2338 70.9686C67.2338 71.1885 67.2756 71.4043 67.3486 71.6118C67.5197 72.0952 67.8473 72.4417 68.3397 72.589C69.1848 72.8442 69.9736 72.7218 70.6768 72.1679C70.7248 72.1305 70.7707 72.0911 70.8291 72.0434C70.8667 72.0683 70.9063 72.0869 70.9355 72.116C71.3967 72.5849 71.8578 73.0538 72.3169 73.5227C72.3294 73.5352 72.3357 73.5518 72.3544 73.5808C72.3169 73.6306 72.2814 73.6887 72.2355 73.7385C71.839 74.1783 71.3466 74.473 70.7915 74.6721C70.3847 74.8174 69.9652 74.9108 69.5333 74.9481C69.4561 74.9543 69.381 74.9813 69.3059 75H68.5672Z" fill="#005D35"/>
<path d="M44.7543 9.84076C44.7293 9.90716 44.7105 9.96318 44.6855 10.015C43.7152 11.982 43.06 14.0505 42.6322 16.1959C42.4486 17.1233 42.3067 18.0549 42.2107 18.9948C42.1251 19.8123 42.0605 20.6318 42.0479 21.4534C42.0375 22.1091 42.0187 22.7647 42.0333 23.4204C42.0479 24.1279 42.0959 24.8354 42.1356 25.5429C42.1418 25.6591 42.1314 25.767 42.0918 25.8769C41.8059 26.6612 41.6118 27.4662 41.5012 28.292C41.422 28.8916 41.3906 29.4933 41.4053 30.0971C41.4282 31.0017 41.5471 31.8918 41.7809 32.7653C41.7913 32.8047 41.7892 32.8483 41.7934 32.9105C41.7245 32.8877 41.6765 32.8752 41.6306 32.8545C38.991 31.5349 36.5455 29.9373 34.3837 27.9248C33.9205 27.4932 33.4677 27.0533 33.0524 26.5782C32.2929 25.7068 31.6815 24.7399 31.2433 23.6693C31.1932 23.5469 31.1974 23.439 31.2391 23.3166C33.0441 17.8495 36.9336 13.4032 42.1272 10.874C42.8868 10.5047 43.6609 10.1727 44.4601 9.90301C44.5477 9.87396 44.6333 9.81587 44.7522 9.84284L44.7543 9.84076Z" fill="#005D35"/>
<path d="M30.5192 26.3604C30.5735 26.4226 30.611 26.4579 30.6423 26.4994C32.0091 28.2297 33.5991 29.7298 35.354 31.066C37.1631 32.4416 39.1016 33.6056 41.1465 34.5973C41.6118 34.8235 42.0834 35.0393 42.5571 35.2488C42.7261 35.3235 42.8429 35.4252 42.9368 35.587C43.6692 36.8609 44.6124 37.9606 45.7663 38.8776C46.4549 39.4254 47.1936 39.8964 47.9907 40.2781C48.0595 40.3113 48.1242 40.3508 48.2119 40.3985C48.1284 40.4462 48.07 40.4835 48.0095 40.5147C45.9166 41.5687 43.7464 42.4235 41.472 43.0044C40.4579 43.2638 39.4313 43.465 38.3942 43.5999C37.5387 43.7099 36.6811 43.7783 35.8172 43.7783C35.7546 43.7783 35.6941 43.7742 35.6315 43.7783C35.5439 43.7845 35.4813 43.7451 35.427 43.6808C35.3644 43.6061 35.2997 43.5356 35.2371 43.463C34.0331 42.0355 33.0274 40.4815 32.2261 38.7946C31.4436 37.1493 30.8948 35.4314 30.5609 33.6429C30.4024 32.7902 30.3064 31.9312 30.2459 31.0681C30.2271 30.815 30.202 30.5618 30.1874 30.3108C30.1541 29.7672 30.1791 29.2277 30.2333 28.6862C30.2605 28.4248 30.2709 28.1634 30.3001 27.9019C30.3544 27.4247 30.4149 26.9475 30.4733 26.4703C30.4754 26.4454 30.4921 26.4247 30.5192 26.3624V26.3604Z" fill="#005D35"/>
<path d="M37.3425 45.5025C37.3926 45.4922 37.4406 45.4756 37.4907 45.4714C38.5611 45.3884 39.6191 45.2245 40.6707 45.0067C42.3526 44.6581 43.9885 44.1581 45.5889 43.5377C47.2124 42.907 48.7815 42.16 50.2985 41.3052C50.478 41.2036 50.6407 41.1704 50.8431 41.216C51.8468 41.4359 52.8651 41.465 53.8875 41.4131C54.0878 41.4027 54.2882 41.3778 54.501 41.3592C54.5156 41.4235 54.5323 41.4712 54.5386 41.521C54.5448 41.5895 54.5406 41.66 54.5406 41.7306C54.5406 44.5813 54.5406 47.4321 54.5406 50.2829C54.5406 50.3949 54.5573 50.509 54.5135 50.6252C54.236 50.6958 53.9564 50.7186 53.6789 50.7456C53.1363 50.7995 52.5938 50.8493 52.0492 50.8846C51.5755 50.9157 51.0998 50.9178 50.6261 50.8742C50.1796 50.8327 49.733 50.7974 49.2865 50.7601C48.287 50.675 47.3 50.5049 46.3255 50.2621C43.0432 49.4447 40.1219 47.9363 37.5533 45.7474C37.4865 45.6914 37.4239 45.6291 37.3613 45.5689C37.3509 45.5586 37.353 45.5378 37.3467 45.5067L37.3425 45.5025Z" fill="#005D35"/>
<path d="M37 45.3066C37.0501 45.2962 37.0981 45.2797 37.1481 45.2755C38.2186 45.1925 39.2765 45.0286 40.3282 44.8107C42.01 44.4622 43.646 43.9622 45.2464 43.3418C46.8698 42.711 48.439 41.9641 49.956 41.1093C50.1354 41.0076 50.2982 40.9744 50.5006 41.0201C51.5043 41.24 52.5225 41.2691 53.545 41.2172C53.7453 41.2068 53.9456 41.1819 54.1585 41.1632C54.1731 41.2276 54.1898 41.2753 54.196 41.3251C54.2023 41.3935 54.1981 41.4641 54.1981 41.5346C54.1981 44.3854 54.1981 47.2362 54.1981 50.087C54.1981 50.199 54.2148 50.3131 54.171 50.4293C53.8935 50.4999 53.6139 50.5227 53.3363 50.5497C52.7938 50.6036 52.2513 50.6534 51.7067 50.6887C51.233 50.7198 50.7572 50.7219 50.2836 50.6783C49.837 50.6368 49.3905 50.6015 48.9439 50.5642C47.9444 50.4791 46.9575 50.309 45.983 50.0662C42.7007 49.2488 39.7794 47.7404 37.2107 45.5515C37.144 45.4954 37.0814 45.4332 37.0188 45.373C37.0083 45.3626 37.0104 45.3419 37.0042 45.3108L37 45.3066Z" fill="#005D35"/>
<path d="M43.8258 22.6796C43.7987 22.5531 43.8091 22.4514 43.8091 22.3477C43.8091 21.4555 43.8508 20.5633 43.9301 19.6753C44.1367 17.393 44.5791 15.1606 45.3532 12.9986C45.7998 11.7517 46.3485 10.5503 47.0497 9.42373C47.2458 9.11043 47.1477 9.16645 47.5358 9.09591C48.2808 8.96312 49.032 8.88013 49.7852 8.81166C50.4613 8.75149 51.1353 8.71 51.8135 8.73489C52.4102 8.75564 53.0091 8.78884 53.6017 8.86561C53.8104 8.89258 54.0211 8.91125 54.2298 8.93822C54.3237 8.95067 54.4176 8.97142 54.5157 8.99009C54.524 9.04611 54.5345 9.08968 54.5345 9.13118C54.5345 12.0255 54.5345 14.9199 54.5345 17.8101C54.4113 17.92 54.2611 17.9553 54.1338 18.0321C53.9001 18.1752 53.6518 18.2064 53.3784 18.1981C51.0477 18.1338 48.888 18.7168 46.9078 19.9409C45.8081 20.6194 44.8524 21.4659 44.0282 22.4597C43.9781 22.5199 43.928 22.5801 43.8759 22.6402C43.8696 22.6465 43.8613 22.6506 43.8237 22.6755L43.8258 22.6796Z" fill="#005D35"/>
<path d="M83.7162 65.9144V66.2837C83.7162 66.3978 83.7141 66.512 83.7162 66.624C83.7203 66.7423 83.6974 66.8626 83.7412 67.0058C83.785 66.9663 83.8142 66.9497 83.833 66.9248C83.906 66.8273 83.9749 66.7257 84.05 66.6282C84.4694 66.0825 85.0245 65.7837 85.711 65.7318C86.1638 65.6986 86.6082 65.7443 87.0381 65.8916C87.5723 66.0721 87.9938 66.4041 88.3109 66.8668C88.6302 67.3315 88.7951 67.8523 88.8848 68.4021C88.9349 68.7133 88.9495 69.0287 88.9495 69.342C88.9495 71.0724 88.9495 72.8048 88.9495 74.5352V74.8029C88.8931 74.8174 88.8535 74.8361 88.8117 74.8361C88.1169 74.8361 87.422 74.8361 86.7272 74.8361C86.6938 74.8361 86.6604 74.8257 86.6291 74.8216C86.5686 74.7261 86.5916 74.6286 86.5916 74.5352C86.5916 73.4252 86.5916 72.3152 86.5916 71.2031C86.5916 70.618 86.5916 70.0308 86.5916 69.4457C86.5916 69.2528 86.5832 69.0619 86.5227 68.8752C86.4058 68.5121 86.1721 68.2527 85.8111 68.1179C85.4022 67.9643 84.9828 67.954 84.5696 68.0826C84.1168 68.2237 83.8622 68.5577 83.7704 69.008C83.7349 69.1864 83.7224 69.3731 83.7224 69.5557C83.7182 71.1989 83.7224 72.8422 83.7224 74.4875V74.8091C83.6682 74.8236 83.6285 74.8423 83.5889 74.8423C82.8857 74.8423 82.1825 74.8423 81.4793 74.8423C81.4542 74.8423 81.4271 74.834 81.3875 74.8257C81.377 74.7801 81.3624 74.7323 81.3583 74.6825C81.352 74.6224 81.3583 74.5601 81.3583 74.5C81.3583 71.7363 81.3583 68.9748 81.3583 66.2111C81.3583 66.1074 81.3645 66.0057 81.3666 65.9186C81.3916 65.8957 81.3979 65.8895 81.4042 65.8854C81.4125 65.8812 81.4208 65.8791 81.4292 65.8791C82.1157 65.8771 82.8001 65.8729 83.4866 65.8709C83.5388 65.8709 83.593 65.8729 83.6452 65.8771C83.6619 65.8771 83.6765 65.8895 83.7245 65.9123L83.7162 65.9144Z" fill="#005D35"/>
<path d="M14.0264 65.8792C14.235 66.5099 14.4353 67.124 14.6377 67.7382C14.8402 68.3523 15.0426 68.9665 15.245 69.5806C15.4474 70.1927 15.6456 70.8068 15.8501 71.4106C15.9482 71.4147 15.9482 71.3483 15.9628 71.3048C16.1005 70.8981 16.234 70.4914 16.3697 70.0869C16.8079 68.7673 17.244 67.4477 17.6801 66.1281C17.7051 66.0534 17.7302 65.9787 17.7594 65.8958C17.8094 65.8875 17.8595 65.8709 17.9117 65.8709C18.5982 65.8709 19.2826 65.8709 19.9691 65.8709C20.0046 65.8709 20.038 65.8771 20.0776 65.8812C20.111 65.9767 20.0526 66.0514 20.0234 66.1281C19.6123 67.2257 19.1971 68.3212 18.7839 69.4167C18.135 71.1346 17.486 72.8526 16.8371 74.5684C16.8037 74.6576 16.7661 74.7448 16.7307 74.8319H15.0843C14.9987 74.7614 14.9862 74.6618 14.9528 74.5747C14.3707 73.0372 13.7906 71.4998 13.2105 69.9624C12.7368 68.7113 12.2652 67.4602 11.7916 66.209C11.754 66.1115 11.7227 66.014 11.6914 65.9227C11.7331 65.8543 11.7895 65.8688 11.8375 65.8688C12.5156 65.8688 13.1917 65.8688 13.8699 65.8688C13.9137 65.8688 13.9575 65.875 14.0264 65.8792Z" fill="#005D35"/>
<path d="M34.0124 65.8812H36.4955C36.5039 65.9476 36.5185 66.0036 36.5205 66.0617C36.5226 66.2982 36.5205 66.5327 36.5205 66.7692C36.5205 66.8377 36.5268 66.9062 36.531 66.9684C36.5978 66.9954 36.6207 66.9518 36.6437 66.9186C36.7814 66.7153 36.9358 66.5244 37.1152 66.3563C37.4491 66.043 37.8289 65.8127 38.2879 65.7484C39.035 65.6447 39.7215 65.7982 40.312 66.2858C40.3391 66.3086 40.3641 66.3314 40.3892 66.3584C40.4017 66.3709 40.408 66.3875 40.4267 66.4186C40.4121 66.4456 40.3996 66.487 40.3746 66.5202C39.9593 67.095 39.5441 67.6697 39.1289 68.2444C39.1142 68.2652 39.0934 68.2818 39.0642 68.3129C39.0203 68.2859 38.9765 68.261 38.9369 68.234C38.8054 68.1448 38.6614 68.0826 38.5049 68.0452C38.2274 67.9788 37.9457 67.9747 37.6682 68.0286C37.2759 68.1054 36.9796 68.3253 36.7793 68.6697C36.6687 68.8606 36.5936 69.0681 36.5706 69.286C36.5456 69.5204 36.5226 69.7569 36.5226 69.9914C36.5185 71.4956 36.5226 72.9978 36.5205 74.502C36.5205 74.6058 36.5143 74.7074 36.5122 74.8257C36.2868 74.8589 36.0782 74.8402 35.8695 74.8444C35.6671 74.8485 35.4647 74.8444 35.2623 74.8444C35.0599 74.8444 34.8408 74.8444 34.63 74.8444C34.4297 74.8444 34.2273 74.8423 34.0166 74.8402C34.0041 74.7759 33.9894 74.7261 33.9853 74.6763C33.9811 74.6058 33.9832 74.5373 33.9832 74.4667C33.9832 71.7218 33.9832 68.9789 33.9832 66.2339C33.9832 66.1219 33.9686 66.0078 34.0103 65.8771L34.0124 65.8812Z" fill="#005D35"/>
<path d="M75.3256 65.8729C76.1227 65.8729 76.8844 65.8688 77.6585 65.8771C77.6689 65.9414 77.6794 65.9912 77.6835 66.041C77.6877 66.0929 77.6835 66.1468 77.6835 66.1987C77.6835 68.9685 77.6835 71.7405 77.6835 74.5103C77.6835 74.6058 77.6835 74.7012 77.6835 74.807C77.6335 74.8215 77.5938 74.8444 77.5542 74.8444C76.8426 74.8444 76.1311 74.8444 75.4174 74.8444C75.4007 74.8444 75.3841 74.8361 75.3507 74.8299C75.3402 74.7884 75.3235 74.7406 75.3194 74.6908C75.3131 74.6307 75.3173 74.5684 75.3173 74.5083C75.3173 71.7467 75.3173 68.9851 75.3173 66.2215C75.3173 66.1178 75.3215 66.014 75.3256 65.875V65.8729Z" fill="#005D35"/>
<path d="M77.6837 62.2732C77.6837 63.0388 77.6837 63.7732 77.6837 64.5077C77.6837 64.5326 77.6691 64.5554 77.6586 64.5886C77.6252 64.5949 77.5919 64.6073 77.5585 64.6073C76.8302 64.6073 76.0999 64.6073 75.3612 64.6073C75.3466 64.5596 75.3237 64.5202 75.3237 64.4808C75.3216 63.7815 75.3237 63.0823 75.3237 62.3831C75.3237 62.3499 75.3362 62.3167 75.3466 62.269C75.5407 62.2441 75.7327 62.2586 75.9246 62.2566C76.1187 62.2545 76.3107 62.2566 76.5047 62.2566C76.6988 62.2566 76.8908 62.2545 77.0848 62.2566C77.2747 62.2607 77.4687 62.242 77.6858 62.2732H77.6837Z" fill="#005D35"/>
</g>
<defs>
<clipPath id="clip0_114_3">
<rect width="109" height="75" fill="white"/>
</clipPath>
</defs>
</svg>
